<svg width="10" height="16" viewBox="0 0 10 16" fill="none" xmlns="http://www.w3.org/2000/svg">
<path id="Vector" d="M8.71355 0.346453C8.93538 0.568354 9.06 0.869276 9.06 1.18304C9.06 1.49681 8.93538 1.79773 8.71355 2.01963L2.85623 7.87695L8.71355 13.7343C8.92909 13.9574 9.04836 14.2563 9.04567 14.5666C9.04297 14.8769 8.91853 15.1736 8.69913 15.393C8.47974 15.6124 8.18295 15.7369 7.8727 15.7396C7.56244 15.7423 7.26354 15.623 7.04037 15.4075L0.346453 8.71354C0.124619 8.49164 0 8.19072 0 7.87695C0 7.56319 0.124619 7.26226 0.346453 7.04036L7.04037 0.346453C7.26227 0.124619 7.56319 0 7.87696 0C8.19072 0 8.49165 0.124619 8.71355 0.346453Z" fill="#252525"/>
</svg>
