<svg width="51" height="51" viewBox="0 0 51 51" fill="none" xmlns="http://www.w3.org/2000/svg">
<g id="Layer_1" clip-path="url(#clip0_1_106)">
<path id="Vector" d="M23.9593 20.988C23.8746 20.988 23.7868 20.9978 23.695 21.0178L23.6895 21.019C23.0501 21.1441 22.5663 21.5835 22.1676 22.4025L22.1649 22.408C21.3957 23.9115 21.226 25.5643 21.6599 27.3198L21.6611 27.3257C21.8622 28.2101 22.2174 28.8899 22.7479 29.4047C23.3414 29.9821 23.9993 30.0119 24.5999 29.4882L24.6038 29.4846C24.9868 29.1624 25.2608 28.7551 25.4235 28.4704L25.4251 28.4677C25.9152 27.6299 26.1531 26.6404 26.1963 25.2597C26.1335 24.0859 25.9171 22.5903 24.8053 21.4012C24.5371 21.1213 24.2682 20.9884 23.9589 20.9884L23.9593 20.988Z" fill="url(#paint0_linear_1_106)"/>
<path id="Vector_2" d="M49.4499 21.751L46.2943 18.5955C45.5153 17.8165 45.0861 16.7804 45.0861 15.6783V11.2158C45.0861 8.29277 42.7079 5.91428 39.7845 5.91428H35.3218C34.2198 5.91428 33.184 5.4854 32.4047 4.70603L29.2491 1.55053C27.1819 -0.51668 23.8185 -0.51668 21.7513 1.55053L18.5958 4.70603C17.8168 5.485 16.7806 5.91428 15.6786 5.91428H11.2159C8.29288 5.91428 5.91436 8.29238 5.91436 11.2158V15.6787C5.91436 16.7807 5.48547 17.8165 4.70608 18.5959L1.55054 21.7514C-0.516703 23.8186 -0.516703 27.1819 1.55054 29.2491L4.70608 32.4046C5.48507 33.1835 5.91436 34.2197 5.91436 35.3217V39.7843C5.91436 42.7073 8.29249 45.0858 11.2159 45.0858H15.679C16.781 45.0858 17.8168 45.5147 18.5961 46.294L21.7517 49.4495C22.7851 50.4833 24.1428 51 25.5004 51C26.858 51 28.2157 50.4829 29.2491 49.4491L32.4047 46.2936C33.1836 45.5147 34.2198 45.0854 35.3218 45.0854H39.7845C42.7075 45.0854 45.0861 42.7073 45.0861 39.7839V35.3213C45.0861 34.2193 45.5149 33.1835 46.2943 32.4042L49.4499 29.2487C51.5171 27.1815 51.5171 23.8182 49.4499 21.751ZM17.8811 30.199C17.5843 30.9207 17.0366 31.5813 16.3395 32.0592C15.6433 32.5363 14.829 32.8099 14.0469 32.8299C13.9987 32.8311 13.9504 32.8315 13.9026 32.8315C13.0958 32.8315 12.3023 32.6774 11.5406 32.3728C10.4573 31.9435 9.7105 31.1755 9.32121 30.0904C9.04678 29.313 9.28436 28.5481 9.91162 28.1863L9.91358 28.1851C10.2484 27.9953 10.6314 27.9526 10.9921 28.0651C11.3826 28.1866 11.7033 28.4717 11.8954 28.868L11.8989 28.8758C12.1474 29.4274 12.6747 29.8136 13.3091 29.9093C13.9159 30.0006 14.5052 29.7975 14.8855 29.3659L14.8917 29.3588C15.0783 29.1597 15.2132 28.7978 15.3042 28.2517L15.3065 28.2388C15.3524 28.0204 15.3179 27.7636 15.281 27.492C15.2681 27.3959 15.2548 27.2971 15.2446 27.1979L15.2438 27.1901C15.2175 26.8341 15.025 26.6099 14.6718 26.5232C14.0316 26.3954 13.3651 26.3021 12.6912 26.2457C12.3709 26.2245 12.0565 26.2418 11.7236 26.2598C11.499 26.2719 11.2665 26.2845 11.0305 26.2845C10.5636 26.2845 9.9128 26.1869 9.46352 25.7227C9.15106 25.4001 9.00169 24.9661 9.01933 24.4329C9.05658 23.2097 9.09461 21.9443 9.07618 20.7031C9.0652 20.2189 9.33807 19.6618 9.80656 19.2133C10.2511 18.7872 10.7741 18.5606 11.241 18.592C12.0992 18.6515 12.9758 18.6582 13.8234 18.6645C14.3119 18.668 14.8172 18.6719 15.3155 18.6856H15.3277C15.6484 18.7076 15.9577 18.7723 16.2231 18.8734C16.7273 19.0381 17.0833 19.505 17.1099 20.0386V20.0539C17.1099 20.6321 16.7414 21.1206 16.2125 21.2433C15.7362 21.3664 15.196 21.4374 14.5612 21.4601C13.901 21.4856 13.2573 21.4773 12.5759 21.4687C12.3446 21.466 12.1082 21.4628 11.8699 21.4613V23.4979C11.9377 23.4944 12.0071 23.4912 12.0773 23.4908C13.4718 23.3756 14.5369 23.4614 15.5284 23.7688C16.9821 24.1992 17.8748 25.1754 18.1821 26.6699C18.4354 27.9357 18.3339 29.1228 17.8811 30.199ZM28.9147 25.6831C28.8735 27.118 28.5599 28.4042 27.9554 29.6133C27.5018 30.52 26.9184 31.2496 26.2218 31.782C25.4357 32.3932 24.5407 32.7147 23.6292 32.7147C23.6041 32.7147 23.579 32.7147 23.5539 32.7139C22.6165 32.6959 21.7046 32.3379 20.9166 31.6797C20.3352 31.1936 19.8491 30.5988 19.4724 29.9124C19.1305 29.2898 18.8686 28.5732 18.6942 27.7825C18.5887 27.2955 18.5366 26.7996 18.486 26.3202C18.4617 26.0896 18.4366 25.8513 18.406 25.618L18.4029 25.5933L18.4037 25.5682C18.4676 23.4767 18.9999 21.7565 20.031 20.3095C20.8849 19.1185 21.9026 18.4406 23.1423 18.236C23.9479 18.0843 24.7014 18.1901 25.3824 18.5504C26.5895 19.1773 27.3826 19.9225 27.8785 20.8963C28.6367 22.3567 28.9759 23.9225 28.9151 25.6831H28.9147ZM29.9368 21.535C29.9368 20.0017 31.1842 18.7543 32.7175 18.7543C34.2508 18.7543 35.4983 20.0017 35.4983 21.535C35.4983 23.0682 34.2508 24.3157 32.7175 24.3157C31.1842 24.3157 29.9368 23.0682 29.9368 21.535ZM33.9152 30.7435C33.5847 31.0744 33.1448 31.2563 32.6771 31.2563C32.2094 31.2563 31.7699 31.0744 31.4391 30.7435C30.7565 30.061 30.7565 28.9499 31.4391 28.2674L39.4501 20.2565C39.7805 19.9261 40.2204 19.7438 40.6881 19.7438C41.1558 19.7438 41.5953 19.9257 41.9262 20.2565C42.6087 20.9391 42.6087 22.0501 41.9262 22.7326L33.9152 30.7435ZM40.6477 32.2462C39.1145 32.2462 37.867 30.9987 37.867 29.4655C37.867 27.9322 39.1145 26.6848 40.6477 26.6848C42.181 26.6848 43.4285 27.9322 43.4285 29.4655C43.4285 30.9987 42.181 32.2462 40.6477 32.2462Z" fill="url(#paint1_linear_1_106)"/>
</g>
<defs>
<linearGradient id="paint0_linear_1_106" x1="21.4255" y1="25.4243" x2="26.1967" y2="25.4243" gradientUnits="userSpaceOnUse">
<stop stop-color="#EE9C0B"/>
<stop offset="0.48" stop-color="#F5740C"/>
<stop offset="1" stop-color="#F94002"/>
</linearGradient>
<linearGradient id="paint1_linear_1_106" x1="8.80094e-06" y1="25.5" x2="51" y2="25.5" gradientUnits="userSpaceOnUse">
<stop stop-color="#EE9C0B"/>
<stop offset="0.48" stop-color="#F5740C"/>
<stop offset="1" stop-color="#F94002"/>
</linearGradient>
<clipPath id="clip0_1_106">
<rect width="51" height="51" fill="white"/>
</clipPath>
</defs>
</svg>
