<svg width="17" height="17" viewBox="0 0 17 17" fill="none" xmlns="http://www.w3.org/2000/svg">
<g id="Frame" clip-path="url(#clip0_1_590)">
<g id="15 Chat">
<path id="Vector" d="M9.05018 5.49713H0.830078C0.609928 5.49713 0.398794 5.40968 0.243124 5.25401C0.0874544 5.09834 0 4.8872 0 4.66705C0 4.4469 0.0874544 4.23577 0.243124 4.0801C0.398794 3.92443 0.609928 3.83698 0.830078 3.83698H9.05117C9.27132 3.83698 9.48246 3.92443 9.63813 4.0801C9.7938 4.23577 9.88125 4.4469 9.88125 4.66705C9.88125 4.8872 9.7938 5.09834 9.63813 5.25401C9.48246 5.40968 9.27132 5.49713 9.05117 5.49713H9.05018Z" fill="black"/>
<path id="Vector_2" d="M16.1699 5.49713H14.0921C13.8719 5.49713 13.6608 5.40968 13.5051 5.25401C13.3494 5.09834 13.262 4.8872 13.262 4.66705C13.262 4.4469 13.3494 4.23577 13.5051 4.0801C13.6608 3.92443 13.8719 3.83698 14.0921 3.83698H16.1699C16.3901 3.83698 16.6012 3.92443 16.7569 4.0801C16.9125 4.23577 17 4.4469 17 4.66705C17 4.8872 16.9125 5.09834 16.7569 5.25401C16.6012 5.40968 16.3901 5.49713 16.1699 5.49713Z" fill="black"/>
<path id="Vector_3" d="M16.1699 13.1631H7.94983C7.72968 13.1631 7.51855 13.0756 7.36288 12.92C7.20721 12.7643 7.11975 12.5532 7.11975 12.333C7.11975 12.1129 7.20721 11.9017 7.36288 11.7461C7.51855 11.5904 7.72968 11.5029 7.94983 11.5029H16.1699C16.3901 11.5029 16.6012 11.5904 16.7569 11.7461C16.9126 11.9017 17 12.1129 17 12.333C17 12.5532 16.9126 12.7643 16.7569 12.92C16.6012 13.0756 16.3901 13.1631 16.1699 13.1631Z" fill="black"/>
<path id="Vector_4" d="M2.90793 13.1631H0.830078C0.609928 13.1631 0.398794 13.0756 0.243124 12.92C0.0874544 12.7643 0 12.5532 0 12.333C0 12.1129 0.0874544 11.9017 0.243124 11.7461C0.398794 11.5904 0.609928 11.5029 0.830078 11.5029H2.90793C3.12808 11.5029 3.33921 11.5904 3.49488 11.7461C3.65055 11.9017 3.73801 12.1129 3.73801 12.333C3.73801 12.5532 3.65055 12.7643 3.49488 12.92C3.33921 13.0756 3.12808 13.1631 2.90793 13.1631Z" fill="black"/>
<path id="Vector_5" d="M5.42904 15.6227C4.76622 15.6228 4.11827 15.4263 3.56713 15.0581C3.01598 14.6899 2.5864 14.1666 2.33271 13.5542C2.07901 12.9419 2.0126 12.2681 2.14187 11.618C2.27114 10.9679 2.59028 10.3707 3.05894 9.90201C3.5276 9.4333 4.12472 9.1141 4.7748 8.98477C5.42488 8.85543 6.09871 8.92178 6.71108 9.17541C7.32345 9.42905 7.84685 9.85858 8.2151 10.4097C8.58335 10.9608 8.7799 11.6087 8.7799 12.2715C8.77928 13.1601 8.42606 14.0121 7.7978 14.6404C7.16953 15.2687 6.31758 15.622 5.42904 15.6227ZM5.42904 10.5808C5.09456 10.5808 4.76757 10.6799 4.48943 10.8657C4.21129 11.0515 3.99449 11.3156 3.86646 11.6246C3.73843 11.9336 3.70491 12.2736 3.77015 12.6017C3.83539 12.9298 3.99645 13.2311 4.23297 13.4676C4.46948 13.7041 4.77082 13.8652 5.09888 13.9304C5.42694 13.9957 5.76698 13.9622 6.07599 13.8341C6.385 13.7061 6.6491 13.4893 6.83489 13.2112C7.02068 12.933 7.11981 12.606 7.11974 12.2715C7.11904 11.8234 6.94069 11.3937 6.62377 11.0768C6.30685 10.7599 5.87723 10.5815 5.42904 10.5808Z" fill="black"/>
<path id="Vector_6" d="M11.5709 8.01824C10.9081 8.01824 10.2602 7.8217 9.70913 7.45346C9.15803 7.08523 8.7285 6.56185 8.47485 5.94949C8.22121 5.33714 8.15484 4.66333 8.28415 4.01327C8.41346 3.3632 8.73263 2.76607 9.2013 2.2974C9.66997 1.82873 10.2671 1.50956 10.9172 1.38025C11.5672 1.25094 12.241 1.31731 12.8534 1.57095C13.4657 1.8246 13.9891 2.25413 14.3574 2.80523C14.7256 3.35633 14.9221 4.00425 14.9221 4.66705C14.9215 5.55565 14.5683 6.40768 13.9399 7.03602C13.3116 7.66436 12.4596 8.01763 11.5709 8.01824ZM11.5709 2.97635C11.2365 2.97635 10.9095 3.07553 10.6314 3.26136C10.3533 3.44719 10.1366 3.71131 10.0086 4.02033C9.88062 4.32934 9.84716 4.66937 9.91243 4.99741C9.97771 5.32545 10.1388 5.62676 10.3753 5.86324C10.6119 6.09972 10.9132 6.26075 11.2412 6.32596C11.5693 6.39118 11.9093 6.35764 12.2183 6.2296C12.5273 6.10156 12.7914 5.88476 12.9772 5.60663C13.1629 5.3285 13.2621 5.00152 13.262 4.66705C13.2613 4.21881 13.0829 3.78913 12.7659 3.4722C12.4489 3.15528 12.0192 2.97696 11.5709 2.97635Z" fill="black"/>
</g>
</g>
<defs>
<clipPath id="clip0_1_590">
<rect width="17" height="17" fill="white"/>
</clipPath>
</defs>
</svg>
