<svg width="29" height="29" viewBox="0 0 29 29" fill="none" xmlns="http://www.w3.org/2000/svg">
<g id="Frame 48096112">
<rect width="29" height="29" rx="14.5" fill="#B3BFCB" fill-opacity="0.5"/>
<path id="Vector" d="M20.4902 15.4951C20.0557 15.429 19.6697 15.7269 19.6074 16.1516C19.4509 17.2182 18.9586 18.1914 18.1837 18.9663C16.2115 20.9385 13.0048 20.937 11.0334 18.9663C9.0623 16.9949 9.0623 13.787 11.0334 11.816C11.7748 11.0749 12.7108 10.5917 13.7584 10.4158C14.2089 10.3303 14.6933 10.3155 15.1958 10.3725C15.8858 10.4519 16.5281 10.6809 17.1142 11.017L16.1014 11.19C15.6783 11.2625 15.3933 11.6644 15.4663 12.0879C15.5309 12.467 15.8599 12.7348 16.2321 12.7348C16.2754 12.7348 16.3195 12.7314 16.3643 12.7237L19.0794 12.2595C19.2822 12.2246 19.4638 12.1106 19.5832 11.942C19.7024 11.7737 19.7496 11.5648 19.7145 11.3612L19.2496 8.6464C19.1782 8.22328 18.7816 7.93988 18.3516 8.0109C17.9285 8.08348 17.6435 8.48576 17.7165 8.90927L17.8389 9.6238C17.0859 9.20138 16.2553 8.92809 15.3728 8.82649C14.7118 8.75127 14.0707 8.77219 13.4838 8.88461C12.1327 9.11099 10.905 9.74423 9.93328 10.7159C7.35557 13.2936 7.35557 17.4879 9.93328 20.0663C11.2221 21.3555 12.9155 21.9998 14.6085 21.9998C16.302 21.9998 17.9945 21.3556 19.2838 20.0663C20.2965 19.0536 20.9407 17.7781 21.1466 16.378C21.209 15.9525 20.9149 15.5574 20.4902 15.4951Z" fill="black"/>
</g>
</svg>
