<svg width="14" height="14" viewBox="0 0 14 14" fill="none" xmlns="http://www.w3.org/2000/svg">
<path d="M12.4902 7.49515C12.0557 7.42902 11.6697 7.7269 11.6074 8.15157C11.4509 9.21821 10.9586 10.1914 10.1837 10.9663C8.21148 12.9385 5.00482 12.937 3.03336 10.9663C1.0623 8.99486 1.0623 5.78703 3.03336 3.81596C3.77482 3.07489 4.71083 2.59172 5.75841 2.41582C6.20891 2.33033 6.69326 2.31555 7.19581 2.37249C7.88584 2.45192 8.52811 2.68087 9.11421 3.01702L8.10141 3.18995C7.67828 3.26253 7.39332 3.66442 7.4663 4.08793C7.53086 4.46702 7.85985 4.73478 8.2321 4.73478C8.27543 4.73478 8.31946 4.73136 8.36427 4.72374L11.0794 4.25954C11.2822 4.22461 11.4638 4.11064 11.5832 3.94199C11.7024 3.77372 11.7496 3.56476 11.7145 3.36118L11.2496 0.6464C11.1782 0.223279 10.7816 -0.0601245 10.3516 0.0109014C9.92847 0.0834832 9.64352 0.485756 9.71649 0.909266L9.83886 1.6238C9.08589 1.20138 8.25528 0.928092 7.37279 0.826494C6.71185 0.751267 6.07067 0.772193 5.48379 0.884605C4.13267 1.11099 2.905 1.74423 1.93328 2.71588C-0.644426 5.29358 -0.644426 9.48792 1.93328 12.0663C3.22209 13.3555 4.91551 13.9998 6.60854 13.9998C8.30196 13.9998 9.99452 13.3556 11.2838 12.0663C12.2965 11.0536 12.9407 9.77809 13.1466 8.37795C13.209 7.9525 12.9149 7.55738 12.4902 7.49515Z" fill="black"/>
</svg>
