<svg width="24" height="24" viewBox="0 0 24 24" fill="none" xmlns="http://www.w3.org/2000/svg">
<g id="Frame" clip-path="url(#clip0_1_95)">
<path id="Vector" d="M19.8265 12.8477C19.8265 12.4525 19.5061 12.1321 19.1107 12.1321C18.7154 12.1321 18.395 12.4525 18.395 12.8477C18.395 16.3486 15.5469 19.1967 12.046 19.1967C8.54516 19.1967 5.69713 16.3486 5.69713 12.8477C5.69713 12.4525 5.3767 12.1321 4.98137 12.1321C4.58604 12.1321 4.26561 12.4525 4.26561 12.8477C4.26561 16.8967 7.37438 20.2323 11.3302 20.5949V22.5217H8.67407C8.27874 22.5217 7.95831 22.8421 7.95831 23.2374C7.95831 23.6328 8.27874 23.9532 8.67407 23.9532H15.418C15.8132 23.9532 16.1336 23.6328 16.1336 23.2374C16.1336 22.8421 15.8132 22.5217 15.418 22.5217H12.7617V20.5949C16.7177 20.2325 19.8265 16.8967 19.8265 12.8477Z" fill="#FF7815"/>
<path id="Vector_2" d="M12.046 17.4306C14.573 17.4306 16.6289 15.3747 16.6289 12.8476V4.5359C16.6289 2.00904 14.573 -0.046875 12.046 -0.046875C9.5191 -0.046875 7.46319 2.00904 7.46319 4.5359V12.8476C7.46319 15.3747 9.5191 17.4306 12.046 17.4306ZM8.89453 4.5359C8.89453 2.79822 10.3083 1.38465 12.046 1.38465C13.7836 1.38465 15.1974 2.79822 15.1974 4.5359V12.8476C15.1974 14.5853 13.7836 15.9991 12.046 15.9991C10.3083 15.9991 8.89453 14.5853 8.89453 12.8476V4.5359Z" fill="#FF7815"/>
</g>
<defs>
<clipPath id="clip0_1_95">
<rect width="24" height="24" fill="white"/>
</clipPath>
</defs>
</svg>
